# xmcd
#
# Track frame offsets:
#	150
#	16478
#	32728
#	45425
#	59777
#	73231
#	92446
#	112000
#	132267
#	147992
#	163384
#	181694
#	195564
#	214427
#	231011
#	248554
#
# Disc length: 3559
#
# Revision: 2
# Processed by: cddbd v1.5.1PL0 Copyright (c) Steve Scherf et al.
# Submitted via: audiograbber 1.80
# Normalized: r1:DSETVAR1,TDELIM( - )
#
DISCID=ea0de510
DTITLE=Various Artist - Summer Holiday Party
DYEAR=1900
DGENRE=
TTITLE0=George Baker Selection - Paloma Blance
TTITLE1=Smokie - Living Next Door To Alice
TTITLE2=Bellini - Samba De Janeiro
TTITLE3=Ottawan - Hands Up
TTITLE4=Daniel Boone - Beautiful Sunday
TTITLE5=Laid Back - Sunshine Beggae
TTITLE6=Gommbay Dance Band - Sun Of Jamaica
TTITLE7=Santa Barbara - Charly
TTITLE8=Mungo Jerry - In The Summertime
TTITLE9=The Bubettes - Sugar Baby Love
TTITLE10=Les Humphries Singers - Mexico
TTITLE11=K.C. and The Sunshine Band - That´s The Way I Like It
TTITLE12=DJ BoBo - There Is A Party
TTITLE13=Los Del Mar - Maccarena
TTITLE14=TNN - La Cucamarcha
TTITLE15=Opus - Live Is Life
EXTD=
EXTT0=
EXTT1=
EXTT2=
EXTT3=
EXTT4=
EXTT5=
EXTT6=
EXTT7=
EXTT8=
EXTT9=
EXTT10=
EXTT11=
EXTT12=
EXTT13=
EXTT14=
EXTT15=
PLAYORDER=
